<mxfile host="app.diagrams.net" modified="2023-04-25T02:13:06.841Z" agent="Mozilla/5.0 (Windows NT 10.0; Win64; x64) AppleWebKit/537.36 (KHTML, like Gecko) Chrome/112.0.0.0 Safari/537.36" etag="W5Rkj3_Y4fszqJ0Kq-fL" version="21.2.1" type="device">
  <diagram name="Page-1" id="HiQQ755nmSSbNRLTUAPr">
    <mxGraphModel dx="2060" dy="1045" grid="1" gridSize="10" guides="1" tooltips="1" connect="1" arrows="1" fold="1" page="1" pageScale="1" pageWidth="850" pageHeight="1100" math="0" shadow="0">
      <root>
        <mxCell id="0" />
        <mxCell id="1" parent="0" />
        <mxCell id="yfIqBmDYOENal--9FzKk-6" style="edgeStyle=orthogonalEdgeStyle;rounded=0;orthogonalLoop=1;jettySize=auto;html=1;dashed=1;dashPattern=12 12;" edge="1" parent="1" source="yfIqBmDYOENal--9FzKk-1">
          <mxGeometry relative="1" as="geometry">
            <mxPoint x="100" y="1971" as="targetPoint" />
          </mxGeometry>
        </mxCell>
        <mxCell id="yfIqBmDYOENal--9FzKk-1" value="Actor" style="rounded=1;whiteSpace=wrap;html=1;" vertex="1" parent="1">
          <mxGeometry x="40" y="230" width="120" height="60" as="geometry" />
        </mxCell>
        <mxCell id="yfIqBmDYOENal--9FzKk-2" value="Heart rate service" style="rounded=1;whiteSpace=wrap;html=1;" vertex="1" parent="1">
          <mxGeometry x="200" y="230" width="120" height="60" as="geometry" />
        </mxCell>
        <mxCell id="yfIqBmDYOENal--9FzKk-3" value="Google Service" style="rounded=1;whiteSpace=wrap;html=1;" vertex="1" parent="1">
          <mxGeometry x="360" y="230" width="120" height="60" as="geometry" />
        </mxCell>
        <mxCell id="yfIqBmDYOENal--9FzKk-4" value="ML Service" style="rounded=1;whiteSpace=wrap;html=1;" vertex="1" parent="1">
          <mxGeometry x="520" y="230" width="120" height="60" as="geometry" />
        </mxCell>
        <mxCell id="yfIqBmDYOENal--9FzKk-5" value="Data storage" style="rounded=1;whiteSpace=wrap;html=1;" vertex="1" parent="1">
          <mxGeometry x="680" y="230" width="120" height="60" as="geometry" />
        </mxCell>
        <mxCell id="yfIqBmDYOENal--9FzKk-7" style="edgeStyle=orthogonalEdgeStyle;rounded=0;orthogonalLoop=1;jettySize=auto;html=1;dashed=1;dashPattern=12 12;" edge="1" parent="1">
          <mxGeometry relative="1" as="geometry">
            <mxPoint x="259.5" y="1971" as="targetPoint" />
            <mxPoint x="259.5" y="290" as="sourcePoint" />
          </mxGeometry>
        </mxCell>
        <mxCell id="yfIqBmDYOENal--9FzKk-8" style="edgeStyle=orthogonalEdgeStyle;rounded=0;orthogonalLoop=1;jettySize=auto;html=1;dashed=1;dashPattern=12 12;" edge="1" parent="1">
          <mxGeometry relative="1" as="geometry">
            <mxPoint x="419.5" y="1971" as="targetPoint" />
            <mxPoint x="419.5" y="290" as="sourcePoint" />
          </mxGeometry>
        </mxCell>
        <mxCell id="yfIqBmDYOENal--9FzKk-9" style="edgeStyle=orthogonalEdgeStyle;rounded=0;orthogonalLoop=1;jettySize=auto;html=1;dashed=1;dashPattern=12 12;" edge="1" parent="1">
          <mxGeometry relative="1" as="geometry">
            <mxPoint x="579.5" y="1971" as="targetPoint" />
            <mxPoint x="579.5" y="290" as="sourcePoint" />
          </mxGeometry>
        </mxCell>
        <mxCell id="yfIqBmDYOENal--9FzKk-10" style="edgeStyle=orthogonalEdgeStyle;rounded=0;orthogonalLoop=1;jettySize=auto;html=1;dashed=1;dashPattern=12 12;" edge="1" parent="1">
          <mxGeometry relative="1" as="geometry">
            <mxPoint x="739.5" y="1971" as="targetPoint" />
            <mxPoint x="739.5" y="290" as="sourcePoint" />
          </mxGeometry>
        </mxCell>
      </root>
    </mxGraphModel>
  </diagram>
</mxfile>
